<?xml version="1.0" standalone="no"?>
<!DOCTYPE svg PUBLIC "-//W3C//DTD SVG 1.1//EN" "http://www.w3.org/Graphics/SVG/1.1/DTD/svg11.dtd">
<svg xmlns="http://www.w3.org/2000/svg">
    <defs >
        <font id="SourceSansPro" horiz-adv-x="455" >
            <font-face
                font-family="Source Sans Pro"
                units-per-em="1000"
                panose-1="2 11 5 3 3 4 3 2 2 4"
                ascent="984"
                descent="-273"
                alphabetic="0" />
            <glyph unicode=" " glyph-name="space" horiz-adv-x="202" />
            <glyph unicode="!" glyph-name="exclam" horiz-adv-x="289" d="M105 576L103 670H186L184 576L173 198H116L105 576ZM85 50Q85 79 102 96T145 114Q169 114 186 97T204 50Q204 23 187 6T145 -12Q120 -12 103 5T85 50Z" />
            <glyph unicode="&quot;" glyph-name="quotedbl" horiz-adv-x="425" d="M83 598L80 690H168L165 598L149 431H99L83 598ZM259 598L256 690H344L341 598L325 431H275L259 598Z" />
            <glyph unicode="#" glyph-name="numbersign" horiz-adv-x="497" d="M115 204H35V261H122L140 409H55V467H147L170 650H223L200 467H333L357 650H410L386 467H467V409H380L362 261H447V204H355L330 0H277L301 204H169L144 0H90L115 204ZM308 261L326 409H194L176 261H308Z" />
            <glyph unicode="$" glyph-name="dollar" horiz-adv-x="497" d="M380 524Q352 551 326 566T258 581Q212 581 185 555T158 485Q158 449 178 426T230 386T297 352T365 312T416 254T437 165Q437 93 396 47T282 -9V-110H222V-11Q174 -6 129 15T52 66L90 123Q122 95
160 76T245 56Q301 56 328 84T356 159Q356 199 336 225T284 271T217 308T149 347T98 400T77 481Q77 548 116 592T222 648V748H282V649Q330 644 363 623T424 573L380 524Z" />
            <glyph unicode="%" glyph-name="percent" horiz-adv-x="824" d="M184 254Q116 254 76 308T35 462Q35 561 75 614T184 668Q251 668 292 615T333 462Q333 362 292 308T184 254ZM184 305Q222 305 246 344T270 462Q270 540 246 578T184 617Q145 617 121 579T97 462Q97
384 121 345T184 305ZM202 -12L564 668H620L258 -12H202ZM641 -12Q573 -12 533 42T492 196Q492 295 532 348T641 402Q708 402 749 349T790 196Q790 96 749 42T641 -12ZM641 39Q679 39 703 78T727 196Q727 274 703 312T641 351Q602 351 578 313T554 196Q554 118
578 79T641 39Z" />
            <glyph unicode="&amp;" glyph-name="ampersand" horiz-adv-x="609" d="M112 175Q112 148 122 126T149 87T190 63T241 54Q275 54 306 68T366 107Q318 149 274 199T194 302Q159 274 136 244T112 175ZM189 514Q189 487 197 458T220 399Q242 414 262 429T298 461T323
496T332 537Q332 566 318 587T270 609Q233 609 211 582T189 514ZM572 -12Q537 -2 499 16T421 63Q383 29 337 9T232 -12Q187 -12 151 1T88 39T47 96T32 170Q32 203 42 230T71 280T112 322T161 359Q141 400 130 438T118 513Q118 546 129 574T160 623T208 656T270
668Q331 668 365 632T399 538Q399 506 386 479T352 429T305 385T251 344Q283 293 326 246T417 160Q447 201 470 249T509 354H586Q566 289 538 230T471 119Q505 96 536 80T594 56L572 -12Z" />
            <glyph unicode="&apos;" glyph-name="quotesingle" horiz-adv-x="249" d="M83 598L80 690H168L165 598L149 431H99L83 598Z" />
            <glyph unicode="(" glyph-name="parenleft" horiz-adv-x="303" d="M214 -176Q152 -76 117 35T82 278Q82 410 117 520T214 732L265 708Q207 612 179 503T150 278Q150 163 178 54T265 -152L214 -176V-176Z" />
            <glyph unicode=")" glyph-name="parenright" horiz-adv-x="303" d="M38 -152Q96 -56 124 53T153 278Q153 393 125 502T38 708L89 732Q151 631 186 521T221 278Q221 146 186 35T89 -176L38 -152V-152Z" />
            <glyph unicode="*" glyph-name="asterisk" horiz-adv-x="418" d="M98 449L155 543L58 583L73 629L175 604L184 712H233L242 605L345 629L360 583L263 543L319 449L280 420L209 506L138 420L98 449Z" />
            <glyph unicode="+" glyph-name="plus" horiz-adv-x="497" d="M216 299H34V361H216V556H281V361H463V299H281V104H216V299Z" />
            <glyph unicode="," glyph-name="comma" horiz-adv-x="249" d="M47 -122Q89 -103 113 -72T137 0Q134 -1 127 -1Q103 -1 86 13T68 56Q68 83 86 98T129 114Q161 114 179 88T198 17Q198 -48 163 -96T67 -170L47 -122Z" />
            <glyph unicode="-" glyph-name="hyphen" horiz-adv-x="311" d="M41 282H271V219H41V282Z" />
            <glyph unicode="." glyph-name="period" horiz-adv-x="249" d="M65 50Q65 79 82 96T125 114Q149 114 166 97T184 50Q184 23 167 6T125 -12Q100 -12 83 5T65 50Z" />
            <glyph unicode="/" glyph-name="slash" horiz-adv-x="350" d="M277 710H337L70 -160H10L277 710Z" />
            <glyph unicode="0" glyph-name="zero" horiz-adv-x="497" d="M249 -12Q152 -12 98 74T44 321Q44 482 98 566T249 650Q345 650 399 566T453 321Q453 160 399 74T249 -12ZM249 54Q277 54 299 69T338 117T364 200T373 321Q373 391 364 441T339 522T300 569T249 584Q221
584 198 569T159 523T133 441T124 321Q124 181 158 118T249 54Z" />
            <glyph unicode="1" glyph-name="one" horiz-adv-x="497" d="M79 68H225V538H109V591Q153 599 185 610T244 638H307V68H439V0H79V68Z" />
            <glyph unicode="2" glyph-name="two" horiz-adv-x="497" d="M40 49Q112 121 168 179T262 286T320 377T340 458Q340 513 310 548T219 583Q179 583 145 561T83 506L36 553Q76 597 121 623T229 650Q318 650 369 599T420 462Q420 417 401 372T347 278T265 177T160
65Q186 67 214 69T267 71H452V0H40V49Z" />
            <glyph unicode="3" glyph-name="three" horiz-adv-x="497" d="M68 132Q97 102 135 79T231 56Q289 56 326 87T363 173Q363 201 353 224T318 265T255 291T159 300V363Q210 363 244 372T300 397T331 435T340 482Q340 529 311 556T230 583Q190 583 157 565T94 518L50
570Q87 605 131 627T233 650Q275 650 310 639T370 608T410 557T424 488Q424 430 392 393T308 336V332Q337 325 362 312T406 278T435 230T446 170Q446 128 430 94T385 37T318 1T236 -12Q198 -12 167 -5T109 15T63 44T26 78L68 132Z" />
            <glyph unicode="4" glyph-name="four" horiz-adv-x="497" d="M304 242V427Q304 453 305 488T309 550H305Q293 527 280 505T253 460L104 242H304ZM469 176H382V0H304V176H17V230L290 638H382V242H469V176Z" />
            <glyph unicode="5" glyph-name="five" horiz-adv-x="497" d="M65 129Q93 100 131 78T226 56Q255 56 280 66T325 96T355 142T366 202Q366 268 329 305T230 342Q197 342 174 332T121 303L77 331L98 638H417V567H170L153 378Q176 390 199 397T251 404Q292 404 328
392T391 356T433 294T449 204Q449 152 431 112T383 45T315 3T234 -12Q196 -12 165 -5T108 15T62 42T25 75L65 129Z" />
            <glyph unicode="6" glyph-name="six" horiz-adv-x="497" d="M268 53Q292 53 312 63T347 91T370 135T379 193Q379 256 350 292T261 328Q231 328 196 309T128 244Q136 150 171 102T268 53ZM399 531Q379 554 352 567T294 581Q261 581 231 567T178 521T141 438T126
310Q156 347 196 368T275 390Q358 390 407 341T457 193Q457 147 442 110T401 45T341 3T268 -12Q221 -12 181 7T112 64T65 160T48 295Q48 391 68 458T122 568T199 630T291 650Q343 650 380 631T445 582L399 531Z" />
            <glyph unicode="7" glyph-name="seven" horiz-adv-x="497" d="M177 0Q181 90 193 165T226 307T281 438T362 567H44V638H455V587Q398 515 363 449T306 315T276 170T262 0H177V0Z" />
            <glyph unicode="8" glyph-name="eight" horiz-adv-x="497" d="M115 171Q115 144 125 122T154 84T198 58T252 49Q308 49 342 80T377 161Q377 192 363 214T325 252T270 282T204 310Q166 284 141 250T115 171ZM295 348Q327 377 344 409T362 476Q362 524 333 556T251
589Q206 589 177 561T148 486Q148 457 160 437T192 400T239 372T295 348ZM41 163Q41 194 51 220T78 268T116 306T161 335V339Q126 364 99 399T72 486Q72 523 86 553T124 604T181 638T253 650Q295 650 328 638T384 603T420 549T433 480Q433 455 425 432T404 389T376
353T345 326V322Q366 310 386 295T421 260T446 215T456 158Q456 122 441 91T399 37T334 1T250 -12Q205 -12 167 1T101 37T57 93T41 163Z" />
            <glyph unicode="9" glyph-name="nine" horiz-adv-x="497" d="M235 310Q266 310 301 329T369 395Q361 489 325 537T228 585Q205 585 185 575T149 547T126 502T117 445Q117 382 146 346T235 310ZM97 107Q117 84 144 70T202 56Q236 56 266 70T319 116T356 201T371
330Q341 292 301 270T221 248Q138 248 89 297T40 445Q40 491 55 528T95 593T155 635T228 650Q275 650 315 631T385 574T431 478T448 343Q448 247 428 180T374 70T297 8T205 -12Q154 -12 116 7T51 55L97 107Z" />
            <glyph unicode=":" glyph-name="colon" horiz-adv-x="249" d="M65 411Q65 440 82 457T125 475Q149 475 166 458T184 411Q184 384 167 367T125 349Q100 349 83 366T65 411ZM65 50Q65 79 82 96T125 114Q149 114 166 97T184 50Q184 23 167 6T125 -12Q100 -12 83 5T65 50Z" />
            <glyph unicode=";" glyph-name="semicolon" horiz-adv-x="249" d="M65 411Q65 440 82 457T125 475Q149 475 166 458T184 411Q184 384 167 367T125 349Q100 349 83 366T65 411ZM47 -122Q89 -103 113 -72T137 0Q134 -1 127 -1Q103 -1 86 13T68 56Q68 83 86 98T129
114Q161 114 179 88T198 17Q198 -48 163 -96T67 -170L47 -122Z" />
            <glyph unicode="&lt;" glyph-name="less" horiz-adv-x="497" d="M34 365L463 533V462L252 384L118 334V330L252 280L463 202V131L34 299V365Z" />
            <glyph unicode="=" glyph-name="equal" horiz-adv-x="497" d="M34 468H463V406H34V468ZM34 511H463V449H34V511Z" />
            <glyph unicode="&gt;" glyph-name="greater" horiz-adv-x="497" d="M463 299L34 131V202L245 280L379 330V334L245 384L34 462V533L463 365V299Z" />
            <glyph unicode="?" glyph-name="question" horiz-adv-x="425" d="M160 198Q154 237 162 268T186 326T220 376T257 421T285 467T297 517Q297 557 273 585T200 614Q167 614 138 599T85 556L38 599Q70 635 111 658T206 682Q284 682 330 640T377 522Q377 489 365 462T336
411T299 364T263 315T237 262T232 198H160ZM139 50Q139 79 156 96T198 114Q223 114 240 97T258 50Q258 23 241 6T198 -12Q173 -12 156 5T139 50Z" />
            <glyph unicode="@" glyph-name="at" horiz-adv-x="847" d="M51 203Q51 303 84 385T175 525T308 614T468 646Q544 646 604 622T707 555T773 450T796 315Q796 249 778 200T730 117T666 66T596 49Q555 49 527 68T493 125H491Q466 96 434 77T369 57Q318 57 284 93T249
198Q249 238 262 279T301 354T361 409T441 430Q467 430 487 419T521 382H523L534 422H589L550 222Q520 105 604 105Q628 105 651 119T694 159T726 224T738 312Q738 372 721 423T668 512T581 570T461 591Q394 591 331 564T219 486T141 365T111 206Q111 133 133 76T196
-20T290 -79T409 -100Q455 -100 496 -88T571 -55L593 -104Q508 -155 403 -155Q329 -155 265 -132T154 -64T79 49T51 203ZM315 203Q315 155 335 134T385 113Q406 113 428 127T477 172L506 331Q492 354 477 363T442 373Q412 373 389 357T349 316T324 261T315 203Z"
            />
            <glyph unicode="A" glyph-name="A" horiz-adv-x="544" d="M369 267L338 367Q320 422 304 476T272 588H268Q253 531 237 477T203 367L172 267H369ZM390 200H151L88 0H3L225 656H319L541 0H452L390 200Z" />
            <glyph unicode="B" glyph-name="B" horiz-adv-x="588" d="M90 656H285Q335 656 376 647T447 619T493 570T510 496Q510 447 482 408T396 353V349Q468 338 508 299T548 192Q548 144 530 108T479 48T400 12T299 0H90V656ZM270 376Q355 376 391 405T428 489Q428 543
390 566T274 590H173V376H270ZM287 66Q372 66 419 97T466 196Q466 257 420 285T287 314H173V66H287Z" />
            <glyph unicode="C" glyph-name="C" horiz-adv-x="571" d="M52 328Q52 407 74 470T135 577T227 644T344 668Q404 668 449 644T523 587L476 534Q450 562 419 578T345 595Q298 595 260 577T195 524T153 440T138 330Q138 268 152 219T193 134T256 80T341 61Q389 61
424 80T492 134L539 83Q500 38 451 13T339 -12Q277 -12 225 11T134 77T74 184T52 328Z" />
            <glyph unicode="D" glyph-name="D" horiz-adv-x="615" d="M90 656H254Q406 656 485 572T564 331Q564 253 544 192T485 88T389 23T258 0H90V656ZM248 68Q363 68 420 137T478 331Q478 456 421 522T248 588H173V68H248Z" />
            <glyph unicode="E" glyph-name="E" horiz-adv-x="527" d="M90 656H468V586H173V380H422V309H173V71H478V0H90V656Z" />
            <glyph unicode="F" glyph-name="F" horiz-adv-x="494" d="M90 656H468V586H173V364H423V294H173V0H90V656Z" />
            <glyph unicode="G" glyph-name="G" horiz-adv-x="617" d="M52 328Q52 407 74 470T137 577T233 644T354 668Q422 668 467 643T542 587L495 534Q470 560 438 577T355 595Q305 595 265 577T197 524T154 440T138 330Q138 268 152 219T194 134T262 80T356 61Q391 61
422 71T474 100V271H335V340H550V64Q518 31 466 10T347 -12Q282 -12 228 11T135 77T74 184T52 328Z" />
            <glyph unicode="H" glyph-name="H" horiz-adv-x="652" d="M90 656H173V381H478V656H562V0H478V309H173V0H90V656Z" />
            <glyph unicode="I" glyph-name="I" horiz-adv-x="263" d="M90 656H173V0H90V656Z" />
            <glyph unicode="J" glyph-name="J" horiz-adv-x="480" d="M91 135Q113 96 141 79T204 61Q257 61 283 93T309 201V656H393V193Q393 151 383 114T351 48T295 4T212 -12Q89 -12 31 93L91 135Z" />
            <glyph unicode="K" glyph-name="K" horiz-adv-x="579" d="M90 656H173V327H176L449 656H543L338 406L575 0H482L286 341L173 208V0H90V656Z" />
            <glyph unicode="L" glyph-name="L" horiz-adv-x="486" d="M90 656H173V71H460V0H90V656Z" />
            <glyph unicode="M" glyph-name="M" horiz-adv-x="727" d="M90 656H188L315 304L363 170H367L413 304L539 656H637V0H558V361Q558 405 561 458T569 555H565L512 409L386 66H339L212 409L160 555H156Q159 511 163 458T167 361V0H90V656Z" />
            <glyph unicode="N" glyph-name="N" horiz-adv-x="647" d="M90 656H176L413 244L484 108H488Q485 158 482 211T478 317V656H557V0H471L233 413L162 548H158Q162 498 165 447T169 343V0H90V656Z" />
            <glyph unicode="O" glyph-name="O" horiz-adv-x="664" d="M332 -12Q270 -12 219 12T130 80T73 188T52 331Q52 410 72 472T130 578T218 645T332 668Q394 668 445 645T534 578T592 472T613 331Q613 252 593 189T535 81T446 12T332 -12ZM332 61Q376 61 411 80T472
134T512 219T526 331Q526 392 512 441T473 524T412 576T332 595Q288 595 253 577T192 524T152 441T138 331Q138 269 152 220T191 135T252 80T332 61Z" />
            <glyph unicode="P" glyph-name="P" horiz-adv-x="576" d="M90 656H291Q345 656 390 646T466 614T515 554T533 463Q533 411 516 373T466 310T390 273T291 260H173V0H90V656ZM281 328Q367 328 408 360T450 463Q450 534 408 561T281 589H173V328H281Z" />
            <glyph unicode="Q" glyph-name="Q" horiz-adv-x="664" d="M138 331Q138 268 152 218T191 131T252 76T332 57Q376 57 411 76T472 131T512 217T526 331Q526 392 512 441T473 524T412 576T332 595Q288 595 253 577T192 524T152 441T138 331ZM627 -149Q612 -154 587
-159T533 -164Q442 -164 381 -121T291 -9Q237 -2 193 25T118 96T69 199T52 331Q52 410 72 472T130 578T218 645T332 668Q394 668 445 645T534 578T592 472T613 331Q613 260 597 202T550 100T476 29T381 -8Q404 -52 446 -73T542 -94Q564 -94 580 -91T611 -84L627
-149Z" />
            <glyph unicode="R" glyph-name="R" horiz-adv-x="581" d="M173 345H283Q360 345 401 376T442 472Q442 537 401 563T283 589H173V345ZM450 0L292 277H173V0H90V656H295Q345 656 387 647T460 615T508 558T525 472Q525 395 485 349T378 286L544 0H450Z" />
            <glyph unicode="S" glyph-name="S" horiz-adv-x="534" d="M92 143Q127 106 174 84T273 61Q338 61 374 90T410 168Q410 193 402 210T379 240T344 263T301 284L207 325Q184 335 160 349T117 383T86 430T74 494Q74 531 89 563T132 618T197 655T280 668Q339 668 389
646T474 587L429 533Q399 562 363 578T280 595Q225 595 192 570T158 499Q158 475 167 459T193 430T228 408T267 390L360 350Q388 338 413 323T456 287T484 239T495 175Q495 136 480 102T435 43T365 3T272 -12Q203 -12 144 14T42 85L92 143Z" />
            <glyph unicode="T" glyph-name="T" horiz-adv-x="536" d="M226 586H28V656H508V586H310V0H226V586Z" />
            <glyph unicode="U" glyph-name="U" horiz-adv-x="645" d="M87 656H170V269Q170 210 182 170T214 106T263 72T323 61Q356 61 384 71T433 106T466 170T478 269V656H558V271Q558 192 540 138T491 51T416 3T323 -12Q273 -12 230 2T155 50T105 138T87 271V656Z" />
            <glyph unicode="V" glyph-name="V" horiz-adv-x="515" d="M0 656H89L194 302Q212 243 225 193T258 85H262Q280 143 294 193T325 302L430 656H515L307 0H210L0 656Z" />
            <glyph unicode="W" glyph-name="W" horiz-adv-x="786" d="M23 656H109L178 299Q187 245 197 193T216 87H220Q231 141 243 193T266 299L357 656H433L524 299Q536 247 548 194T572 87H576Q585 141 594 193T613 299L682 656H762L626 0H526L427 395Q418 433 411 469T395
544H391Q383 506 375 470T358 395L261 0H162L23 656Z" />
            <glyph unicode="X" glyph-name="X" horiz-adv-x="513" d="M206 339L28 656H120L209 488Q222 465 233 444T260 393H264Q278 422 288 443T311 488L398 656H486L307 335L498 0H406L310 177Q297 201 284 226T254 282H250Q236 252 223 227T198 177L103 0H15L206 339Z" />
            <glyph unicode="Y" glyph-name="Y" horiz-adv-x="476" d="M196 254L-1 656H88L173 471Q189 435 204 400T236 328H240Q257 365 274 400T306 471L390 656H477L280 254V0H196V254Z" />
            <glyph unicode="Z" glyph-name="Z" horiz-adv-x="539" d="M45 50L390 586H76V656H494V607L148 71H497V0H45V50Z" />
            <glyph unicode="[" glyph-name="bracketleft" horiz-adv-x="303" d="M94 708H273V661H156V-105H273V-152H94V708Z" />
            <glyph unicode="\" glyph-name="backslash" horiz-adv-x="350" d="M14 710H73L340 -160H281L14 710Z" />
            <glyph unicode="]" glyph-name="bracketright" horiz-adv-x="303" d="M147 -105V661H31V708H209V-152H31V-105H147Z" />
            <glyph unicode="^" glyph-name="asciicircum" horiz-adv-x="497" d="M212 670H285L437 284H365L300 460L251 593H247L197 460L132 284H60L212 670Z" />
            <glyph unicode="_" glyph-name="underscore" horiz-adv-x="500" d="M488 -71V-126H12V-71H488Z" />
            <glyph unicode="`" glyph-name="grave" horiz-adv-x="542" d="M160 714H246L336 573H273L160 714Z" />
            <glyph unicode="a" glyph-name="a" horiz-adv-x="512" d="M58 126Q58 206 129 248T357 308Q357 331 353 353T337 392T306 419T257 430Q214 430 178 414T112 378L79 435Q113 457 162 477T270 498Q359 498 399 444T439 298V0H371L364 58H362Q327 29 287 9T201 -12Q139
-12 99 24T58 126ZM139 132Q139 90 163 72T224 54Q259 54 290 70T357 119V254Q296 246 254 235T187 209T150 175T139 132Z" />
            <glyph unicode="b" glyph-name="b" horiz-adv-x="555" d="M82 712H164V518L162 430Q195 459 234 478T314 498Q361 498 397 481T457 431T494 353T507 251Q507 189 490 140T444 57T377 6T297 -12Q263 -12 227 3T158 48H155L148 0H82V712ZM164 108Q196 80 227 69T283
57Q313 57 338 70T382 108T411 169T422 250Q422 290 415 323T393 379T353 416T294 429Q235 429 164 363V108Z" />
            <glyph unicode="c" glyph-name="c" horiz-adv-x="456" d="M46 242Q46 303 65 350T116 431T190 481T280 498Q328 498 362 481T422 440L381 387Q359 406 336 418T283 430Q250 430 222 417T174 378T143 319T131 242Q131 200 142 166T172 108T220 70T281 56Q316 56
344 70T395 105L432 51Q399 22 359 5T274 -12Q226 -12 184 5T112 54T64 134T46 242Z" />
            <glyph unicode="d" glyph-name="d" horiz-adv-x="555" d="M47 242Q47 301 64 348T111 429T178 480T258 498Q300 498 331 483T394 442L390 525V712H473V0H405L398 57H395Q366 29 329 9T248 -12Q156 -12 102 54T47 242ZM132 243Q132 155 167 106T266 57Q300 57 330
73T390 124V378Q359 406 331 417T272 429Q243 429 218 416T173 378T143 319T132 243Z" />
            <glyph unicode="e" glyph-name="e" horiz-adv-x="496" d="M46 242Q46 302 64 349T113 430T183 480T264 498Q310 498 346 482T407 436T445 364T458 270Q458 243 455 225H127Q132 146 175 100T289 54Q324 54 353 64T410 92L439 38Q407 18 368 3T279 -12Q230 -12
188 5T114 55T64 135T46 242ZM386 279Q386 354 355 393T266 433Q240 433 217 423T174 393T143 345T126 279H386Z" />
            <glyph unicode="f" glyph-name="f" horiz-adv-x="292" d="M301 645Q274 657 246 657Q178 657 178 563V486H281V419H178V0H96V419H30V481L96 486V563Q96 638 130 681T238 724Q261 724 281 720T319 708L301 645Z" />
            <glyph unicode="g" glyph-name="g" horiz-adv-x="504" d="M117 -82Q117 -121 154 -144T258 -167Q293 -167 321 -159T370 -137T401 -105T412 -68Q412 -34 387 -21T314 -8H230Q216 -8 200 -7T167 0Q141 -19 129 -40T117 -82ZM45 -93Q45 -62 64 -34T116 17V21Q98
32 86 51T73 100Q73 131 90 154T126 190V194Q102 214 83 247T63 325Q63 365 77 397T117 451T175 486T246 498Q266 498 283 495T315 486H484V423H384Q401 406 412 380T424 323Q424 284 410 253T372 200T316 166T246 154Q228 154 209 158T173 171Q160 160 151 147T142
113Q142 90 160 75T228 60H322Q407 60 449 33T492 -56Q492 -90 475 -120T426 -174T349 -210T246 -224Q201 -224 164 -216T101 -190T60 -149T45 -93ZM246 209Q267 209 285 217T318 240T341 276T349 325Q349 379 319 408T246 438Q203 438 173 409T143 325Q143 298
151 277T173 240T206 217T246 209Z" />
            <glyph unicode="h" glyph-name="h" horiz-adv-x="544" d="M82 712H164V518L161 418Q196 451 234 474T323 498Q400 498 435 450T471 308V0H389V297Q389 366 367 396T297 427Q259 427 230 408T164 352V0H82V712Z" />
            <glyph unicode="i" glyph-name="i" horiz-adv-x="246" d="M124 586Q100 586 84 601T67 639Q67 663 83 677T124 692Q148 692 164 678T181 639Q181 616 165 601T124 586ZM82 486H164V0H82V486Z" />
            <glyph unicode="j" glyph-name="j" horiz-adv-x="247" d="M83 486H165V-55Q165 -129 135 -173T32 -217Q9 -217 -9 -213T-40 -204L-23 -142Q-14 -145 -2 -147T23 -150Q59 -150 71 -125T83 -55V486ZM125 586Q101 586 85 601T68 639Q68 663 84 677T125 692Q148 692
164 678T181 639Q181 616 165 601T125 586Z" />
            <glyph unicode="k" glyph-name="k" horiz-adv-x="495" d="M82 712H163V230H166L373 486H464L301 291L486 0H396L254 234L163 128V0H82V712Z" />
            <glyph unicode="l" glyph-name="l" horiz-adv-x="255" d="M82 712H164V92Q164 72 171 64T187 56Q191 56 194 56T205 58L216 -4Q208 -8 197 -10T169 -12Q122 -12 102 16T82 98V712Z" />
            <glyph unicode="m" glyph-name="m" horiz-adv-x="829" d="M82 486H150L157 416H160Q192 451 229 474T311 498Q367 498 398 474T445 405Q483 447 521 472T605 498Q680 498 716 450T753 308V0H671V297Q671 366 649 396T581 427Q526 427 459 352V0H377V297Q377 366
355 396T286 427Q231 427 164 352V0H82V486Z" />
            <glyph unicode="n" glyph-name="n" horiz-adv-x="547" d="M82 486H150L157 416H160Q195 451 233 474T323 498Q400 498 435 450T471 308V0H389V297Q389 366 367 396T297 427Q259 427 230 408T164 352V0H82V486Z" />
            <glyph unicode="o" glyph-name="o" horiz-adv-x="542" d="M46 242Q46 303 64 350T114 431T185 481T271 498Q316 498 356 481T428 431T477 351T496 242Q496 182 478 135T428 55T357 5T271 -12Q226 -12 186 5T114 54T65 134T46 242ZM131 242Q131 200 141 166T169
108T214 70T271 56Q302 56 328 69T372 107T401 166T411 242Q411 284 401 318T373 378T328 416T271 430Q240 430 214 417T170 378T141 319T131 242Z" />
            <glyph unicode="p" glyph-name="p" horiz-adv-x="555" d="M164 -41V-205H82V486H150L157 430H160Q193 458 232 478T315 498Q362 498 398 481T458 431T494 353T507 250Q507 188 490 140T444 57T377 6T297 -12Q263 -12 230 3T162 44L164 -41ZM164 108Q197 80 228
69T283 57Q313 57 338 70T382 108T411 169T422 250Q422 290 415 323T393 379T353 416T294 429Q263 429 232 412T164 363V108Z" />
            <glyph unicode="q" glyph-name="q" horiz-adv-x="550" d="M47 242Q47 301 64 348T111 429T178 480T258 498Q300 498 332 484T397 440H399L407 486H473V-205H390V-32L394 54Q365 27 328 8T248 -12Q156 -12 102 54T47 242ZM132 243Q132 155 167 106T266 57Q300 57
330 73T390 124V378Q359 406 331 417T272 429Q243 429 218 416T173 378T143 319T132 243Z" />
            <glyph unicode="r" glyph-name="r" horiz-adv-x="347" d="M82 486H150L157 398H160Q185 444 220 471T298 498Q327 498 350 488L334 416Q322 420 312 422T287 424Q256 424 223 399T164 312V0H82V486Z" />
            <glyph unicode="s" glyph-name="s" horiz-adv-x="419" d="M69 110Q101 84 134 68T212 52Q260 52 284 74T308 128Q308 147 298 161T273 185T237 204T197 220Q171 229 145 240T99 268T65 307T52 360Q52 389 63 414T96 458T149 487T219 498Q265 498 303 482T370 443L331
391Q306 410 279 422T220 434Q174 434 153 413T131 364Q131 347 140 335T164 313T198 296T239 280Q265 270 291 259T339 232T373 191T387 133Q387 103 376 77T342 31T286 0T209 -12Q157 -12 110 7T28 55L69 110Z" />
            <glyph unicode="t" glyph-name="t" horiz-adv-x="338" d="M96 419H24V481L100 486L110 622H179V486H310V419H179V149Q179 104 195 80T254 55Q267 55 282 59T309 68L325 6Q305 -1 282 -6T235 -12Q196 -12 170 0T127 33T103 84T96 150V419Z" />
            <glyph unicode="u" glyph-name="u" horiz-adv-x="544" d="M75 486H158V189Q158 120 179 90T249 59Q287 59 316 78T380 141V486H462V0H394L387 76H384Q350 36 313 12T224 -12Q146 -12 111 36T75 178V486Z" />
            <glyph unicode="v" glyph-name="v" horiz-adv-x="467" d="M12 486H97L189 210Q200 174 211 138T234 67H238Q249 102 260 138T282 210L374 486H455L283 0H187L12 486Z" />
            <glyph unicode="w" glyph-name="w" horiz-adv-x="718" d="M24 486H108L180 205Q188 170 195 137T209 70H213Q221 104 229 137T246 205L321 486H401L477 205Q486 170 494 137T511 70H515Q523 104 530 137T545 205L616 486H694L564 0H464L394 261Q385 296 378 330T361
401H357Q349 364 341 330T323 260L255 0H159L24 486Z" />
            <glyph unicode="x" glyph-name="x" horiz-adv-x="446" d="M173 254L26 486H115L180 379Q191 359 203 339T228 298H232Q243 318 254 338T276 379L335 486H421L274 245L432 0H343L272 113Q259 135 246 157T219 200H215Q202 179 190 158T166 113L100 0H14L173 254Z" />
            <glyph unicode="y" glyph-name="y" horiz-adv-x="467" d="M49 -134Q57 -136 67 -138T86 -141Q128 -141 154 -112T196 -37L207 -1L12 486H97L196 217Q207 185 219 150T243 80H247Q258 113 268 149T288 217L375 486H455L272 -40Q259 -76 243 -107T205 -160T155 -196T90
-209Q73 -209 59 -207T33 -199L49 -134V-134Z" />
            <glyph unicode="z" glyph-name="z" horiz-adv-x="425" d="M31 44L287 419H59V486H391V442L135 67H399V0H31V44Z" />
            <glyph unicode="{" glyph-name="braceleft" horiz-adv-x="303" d="M273 -105V-152H228Q169 -152 140 -124T111 -19Q111 8 112 32T115 80T118 126T120 174Q120 189 116 202T103 227T76 245T34 252V304Q59 304 76 311T102 328T116 353T120 381Q120 432 116 476T111
575Q111 652 140 680T228 708H273V661H246Q205 661 192 640T178 570Q178 524 181 482T184 389Q184 340 170 315T124 280V276Q156 267 170 241T184 167Q184 116 181 74T178 -14Q178 -63 191 -84T246 -105H273Z" />
            <glyph unicode="|" glyph-name="bar" horiz-adv-x="241" d="M92 750H150V-250H92V750Z" />
            <glyph unicode="}" glyph-name="braceright" horiz-adv-x="303" d="M57 -105Q98 -105 111 -84T125 -14Q125 32 123 74T120 167Q120 215 133 241T179 276V280Q147 289 134 314T120 389Q120 440 122 482T125 570Q125 619 112 640T57 661H31V708H75Q105 708 127 702T163
680T185 640T192 575Q192 520 188 476T183 381Q183 352 201 329T269 304V252Q244 252 228 245T201 227T187 203T183 174Q183 149 184 126T187 80T190 33T192 -19Q192 -58 185 -83T164 -124T127 -145T75 -152H31V-105H57Z" />
            <glyph unicode="~" glyph-name="asciitilde" horiz-adv-x="497" d="M36 313Q63 361 96 382T161 403Q191 403 214 390T258 361T298 332T338 319Q360 319 379 333T415 380L461 346Q434 298 401 278T336 257Q306 257 283 270T239 299T199 328T159 341Q137 341 118
327T82 280L36 313Z" />
            <glyph unicode="&#xa0;" glyph-name="uni00A0" horiz-adv-x="202" />
            <glyph unicode="&#xa1;" glyph-name="exclamdown" horiz-adv-x="289" d="M184 -90L186 -184H103L105 -90L116 288H173L184 -90ZM204 436Q204 407 187 390T145 372Q120 372 103 389T85 436Q85 463 102 480T145 498Q169 498 186 481T204 436Z" />
            <glyph unicode="&#xa2;" glyph-name="cent" horiz-adv-x="497" d="M262 477Q207 464 175 420T143 310Q143 243 174 199T262 142V477ZM454 133Q425 107 389 90T314 70V-33H262V71Q217 76 180 94T117 143T76 215T61 310Q61 362 76 403T119 474T183 522T262 547V653H314V550Q358
548 390 531T445 492L405 440Q385 458 363 469T314 482V138Q346 140 372 153T418 185L454 133Z" />
            <glyph unicode="&#xa3;" glyph-name="sterling" horiz-adv-x="497" d="M453 71V0H54V50Q105 78 132 125T160 230Q160 244 158 257T153 285H53V337L120 341H138Q128 373 120 403T111 466Q111 508 124 542T162 600T221 637T297 650Q351 650 388 629T452 575L404
528Q385 551 361 566T303 581Q249 581 221 549T192 464Q192 432 199 403T216 341H375V285H229Q231 271 232 258T234 229Q234 176 218 141T172 75V71H453Z" />
            <glyph unicode="&#xa4;" glyph-name="currency" horiz-adv-x="497" d="M26 148L90 213Q73 236 64 265T54 329Q54 364 63 393T90 446L26 512L70 557L138 487Q186 524 249 524Q278 524 307 515T359 487L427 557L471 512L406 446Q423 423 433 394T443 329Q443 294
433 265T406 213L471 148L427 103L359 172Q336 153 307 144T249 134Q185 134 138 172L70 103L26 148ZM130 329Q130 299 139 275T165 232T203 205T249 195Q273 195 294 204T332 232T357 274T367 329Q367 359 358 383T332 426T295 453T249 463Q225 463 203 454T165
426T140 384T130 329Z" />
            <glyph unicode="&#xa5;" glyph-name="yen" horiz-adv-x="497" d="M109 638L187 467Q202 434 216 401T247 332H251Q268 367 282 400T312 467L390 638H474L310 318H452V271H289V206H452V158H289V0H207V158H45V206H207V271H45V318H186L23 638H109Z" />
            <glyph unicode="&#xa6;" glyph-name="brokenbar" horiz-adv-x="241" d="M92 750H150V291H92V750ZM150 214V-250H92V214H150Z" />
            <glyph unicode="&#xa7;" glyph-name="section" horiz-adv-x="497" d="M320 193Q349 207 364 226T380 278Q380 312 360 334T310 372T245 403T178 435Q149 419 133 399T117 348Q117 315 137 294T187 256T253 226T320 193ZM365 574Q341 594 314 607T254 620Q212 620
194 602T175 557Q175 530 195 512T247 479T313 449T380 413T431 361T452 284Q452 236 429 207T367 155Q381 138 389 119T397 73Q397 43 385 18T352 -25T301 -53T236 -64Q182 -64 138 -45T63 7L113 52Q138 28 167 14T236 0Q276 0 298 20T321 69Q321 97 301 116T250
150T183 179T117 215T66 266T45 343Q45 387 69 419T131 472Q116 488 108 508T99 554Q99 580 108 603T137 645T185 673T251 684Q299 684 337 667T405 627L365 574Z" />
            <glyph unicode="&#xa8;" glyph-name="dieresis" horiz-adv-x="542" d="M185 588Q163 588 150 602T136 637Q136 658 149 672T185 686Q206 686 220 672T234 637Q234 616 220 602T185 588ZM357 588Q336 588 322 602T308 637Q308 658 322 672T357 686Q379 686 392
672T406 637Q406 616 393 602T357 588Z" />
            <glyph unicode="&#xa9;" glyph-name="copyright" horiz-adv-x="744" d="M49 323Q49 399 75 460T145 564T248 630T372 653Q437 653 495 630T598 564T669 460T695 323Q695 246 669 185T599 80T496 13T372 -11Q307 -11 248 12T145 79T75 184T49 323ZM96 323Q96 257
118 204T177 112T265 52T372 31Q429 31 479 52T566 111T626 203T648 323Q648 388 626 441T567 533T479 591T372 612Q315 612 265 592T178 533T118 442T96 323ZM198 323Q198 366 213 401T254 461T313 499T383 512Q425 512 454 496T508 455L473 416Q453 436 433 446T386
457Q331 457 298 420T264 323Q264 257 296 219T383 180Q415 180 439 192T485 224L515 182Q487 158 456 142T380 125Q342 125 309 138T251 177T212 239T198 323Z" />
            <glyph unicode="&#xaa;" glyph-name="ordfeminine" horiz-adv-x="345" d="M136 258Q91 258 64 284T37 353Q37 406 84 433T236 471Q235 503 222 524T174 545Q148 545 121 535T73 511L50 553Q75 569 109 582T183 596Q243 596 270 561T298 462V266H248L241 303H237Q217
285 192 272T136 258ZM154 308Q193 308 236 348V433Q159 424 129 405T98 358Q98 332 113 320T154 308Z" />
            <glyph unicode="&#xab;" glyph-name="guillemotleft" horiz-adv-x="429" d="M45 221V283L181 438L217 408L99 252L217 94L181 66L45 221ZM203 221V283L339 438L375 408L257 252L375 94L339 66L203 221Z" />
            <glyph unicode="&#xac;" glyph-name="logicalnot" horiz-adv-x="497" d="M34 361H463V104H397V299H34V361Z" />
            <glyph unicode="&#xad;" glyph-name="uni00AD" horiz-adv-x="311" d="M41 282H271V219H41V282Z" />
            <glyph unicode="&#xae;" glyph-name="registered" horiz-adv-x="423" d="M211 319Q172 319 138 333T79 374T38 436T23 516Q23 560 38 596T78 658T138 698T211 713Q250 713 284 699T344 658T385 596T400 516Q400 472 385 436T345 374T285 334T211 319ZM211 356Q242
356 269 367T317 400T348 450T360 516Q360 551 349 580T317 631T270 665T211 677Q179 677 152 665T106 632T75 581T63 516Q63 480 74 451T105 400T152 368T211 356ZM139 620H215Q247 620 270 606T293 555Q293 537 283 522T256 500L302 417H256L221 487H180V417H139V620ZM206
519Q249 519 249 553Q249 568 240 577T208 586H180V519H206Z" />
            <glyph unicode="&#xaf;" glyph-name="overscore" horiz-adv-x="542" d="M148 658H394V601H148V658Z" />
            <glyph unicode="&#xb0;" glyph-name="degree" horiz-adv-x="331" d="M166 429Q141 429 119 438T79 463T51 503T41 556Q41 586 51 609T78 650T118 676T166 685Q191 685 213 676T253 650T281 610T291 556Q291 527 281 504T254 464T214 438T166 429ZM166 475Q199
475 220 498T241 556Q241 593 220 616T166 639Q133 639 112 616T91 556Q91 521 112 498T166 475Z" />
            <glyph unicode="&#xb1;" glyph-name="plusminus" horiz-adv-x="497" d="M216 304H34V366H216V556H281V366H463V304H281V127H216V304ZM34 62H463V0H34V62Z" />
            <glyph unicode="&#xb2;" glyph-name="two.sups" horiz-adv-x="367" d="M52 477Q97 518 132 550T190 610T225 660T237 706Q237 744 217 766T162 788Q137 788 116 772T78 731L40 766Q63 800 96 821T170 842Q229 842 264 810T300 716Q300 688 289 662T259 610T213
555T155 495H320V440H52V477Z" />
            <glyph unicode="&#xb3;" glyph-name="three.sups" horiz-adv-x="367" d="M78 537Q96 510 121 495T177 479Q209 479 232 497T255 549Q255 583 223 600T134 618V659Q185 659 212 679T240 729Q240 757 221 774T169 791Q147 791 127 778T90 744L51 778Q77 807 107
824T179 842Q204 842 226 835T266 815T293 782T303 737Q303 702 284 679T235 641Q268 633 293 609T319 545Q319 518 308 497T278 460T234 436T180 428Q132 428 95 449T35 504L78 537Z" />
            <glyph unicode="&#xb4;" glyph-name="acute" horiz-adv-x="542" d="M269 573H206L296 714H382L269 573Z" />
            <glyph unicode="&#xb5;" glyph-name="uni00B5" horiz-adv-x="550" d="M82 486H164V189Q164 120 186 90T256 59Q294 59 322 78T386 141V486H468V0H400L393 76H391Q362 37 328 15T251 -8Q222 -8 199 0T159 35L164 -55V-200H82V486Z" />
            <glyph unicode="&#xb6;" glyph-name="paragraph" horiz-adv-x="560" d="M380 656H464V-80H380V656ZM293 226Q239 226 193 238T113 277T60 345T41 443Q41 502 59 542T109 608T186 645T282 656H326V226H293Z" />
            <glyph unicode="&#xb7;" glyph-name="middot" horiz-adv-x="249" d="M65 321Q65 350 82 367T125 385Q149 385 166 368T184 321Q184 294 167 277T125 259Q100 259 83 276T65 321Z" />
            <glyph unicode="&#xb8;" glyph-name="cedilla" horiz-adv-x="542" d="M258 3H311L286 -50Q310 -58 327 -74T345 -121Q345 -143 333 -159T301 -186T255 -203T200 -213L192 -172Q232 -167 256 -156T281 -124Q281 -104 265 -94T218 -75L258 3Z" />
            <glyph unicode="&#xb9;" glyph-name="one.sups" horiz-adv-x="367" d="M172 748H87V790Q120 796 142 805T184 830H236V440H172V748Z" />
            <glyph unicode="&#xba;" glyph-name="ordmasculine" horiz-adv-x="365" d="M182 258Q151 258 124 269T75 302T42 355T30 427Q30 467 42 498T75 551T123 584T182 596Q213 596 240 585T289 552T322 499T334 427Q334 387 322 356T289 303T241 270T182 258ZM182 309Q224
309 247 341T270 427Q270 481 247 513T182 545Q140 545 117 513T93 427Q93 374 116 342T182 309Z" />
            <glyph unicode="&#xbb;" glyph-name="guillemotright" horiz-adv-x="429" d="M172 252L54 408L89 438L226 283V221L89 66L54 94L172 252ZM330 252L212 408L247 438L384 283V221L247 66L212 94L330 252Z" />
            <glyph unicode="&#xbc;" glyph-name="onequarter" horiz-adv-x="781" d="M149 574H64V616Q97 622 119 631T161 656H213V266H149V574ZM180 -12L542 668H598L236 -12H180ZM633 150V220L637 329H633L583 248L522 150H633ZM749 104H691V0H633V104H455V137L619 390H691V150H749V104Z"
            />
            <glyph unicode="&#xbd;" glyph-name="onehalf" horiz-adv-x="808" d="M149 574H64V616Q97 622 119 631T161 656H213V266H149V574ZM159 -12L521 668H577L215 -12H159ZM493 37Q538 78 573 110T631 170T666 220T678 266Q678 304 658 326T603 348Q578 348 557 332T519
291L481 326Q504 360 537 381T611 402Q670 402 705 370T741 276Q741 248 730 222T700 170T654 115T596 55H761V0H493V37Z" />
            <glyph unicode="&#xbe;" glyph-name="threequarters" horiz-adv-x="796" d="M78 363Q96 336 121 321T177 305Q209 305 232 323T255 375Q255 409 223 426T134 444V485Q185 485 212 505T240 555Q240 583 221 600T169 617Q147 617 127 604T90 570L51 604Q77 633 107
650T179 668Q204 668 226 661T266 641T293 608T303 563Q303 528 284 505T235 467Q268 459 293 435T319 371Q319 344 308 323T278 286T234 262T180 254Q132 254 95 275T35 330L78 363ZM217 -12L579 668H635L273 -12H217ZM648 150V220L652 329H648L598 248L537 150H648ZM764
104H706V0H648V104H470V137L634 390H706V150H764V104Z" />
            <glyph unicode="&#xbf;" glyph-name="questiondown" horiz-adv-x="425" d="M265 288Q270 249 262 218T239 160T205 110T168 65T140 19T128 -31Q128 -71 152 -99T225 -127Q258 -127 287 -112T339 -70L387 -113Q355 -148 314 -172T219 -196Q141 -196 95 -154T48
-36Q48 -3 60 24T89 75T126 122T162 171T187 224T192 288H265ZM286 436Q286 407 269 390T227 372Q202 372 185 389T167 436Q167 463 184 480T227 498Q251 498 268 481T286 436Z" />
            <glyph unicode="&#xc0;" glyph-name="Agrave" horiz-adv-x="544" d="M369 267L338 367Q320 422 304 476T272 588H268Q253 531 237 477T203 367L172 267H369ZM390 200H151L88 0H3L225 656H319L541 0H452L390 200ZM140 818H234L322 706H253L140 818Z" />
            <glyph unicode="&#xc1;" glyph-name="Aacute" horiz-adv-x="544" d="M369 267L338 367Q320 422 304 476T272 588H268Q253 531 237 477T203 367L172 267H369ZM390 200H151L88 0H3L225 656H319L541 0H452L390 200ZM289 706H220L308 818H402L289 706Z" />
            <glyph unicode="&#xc2;" glyph-name="Acircumflex" horiz-adv-x="544" d="M369 267L338 367Q320 422 304 476T272 588H268Q253 531 237 477T203 367L172 267H369ZM390 200H151L88 0H3L225 656H319L541 0H452L390 200ZM135 706L231 818H311L407 706H340L273 774H269L202
706H135Z" />
            <glyph unicode="&#xc3;" glyph-name="Atilde" horiz-adv-x="544" d="M369 267L338 367Q320 422 304 476T272 588H268Q253 531 237 477T203 367L172 267H369ZM390 200H151L88 0H3L225 656H319L541 0H452L390 200ZM331 711Q311 711 295 719T266 737T239 755T212
763Q198 763 187 750T172 711H126Q131 758 153 788T211 819Q231 819 247 811T276 793T303 775T330 767Q344 767 355 780T370 819H416Q411 773 389 742T331 711Z" />
            <glyph unicode="&#xc4;" glyph-name="Adieresis" horiz-adv-x="544" d="M369 267L338 367Q320 422 304 476T272 588H268Q253 531 237 477T203 367L172 267H369ZM390 200H151L88 0H3L225 656H319L541 0H452L390 200ZM185 715Q163 715 150 729T136 764Q136 786 149
799T185 813Q206 813 220 800T234 764Q234 743 220 729T185 715ZM357 715Q336 715 322 729T308 764Q308 786 322 799T357 813Q379 813 392 800T406 764Q406 743 393 729T357 715Z" />
            <glyph unicode="&#xc5;" glyph-name="Aring" horiz-adv-x="544" d="M369 267L338 367Q320 422 304 476T272 588H268Q253 531 237 477T203 367L172 267H369ZM390 200H151L88 0H3L225 656H319L541 0H452L390 200ZM271 699Q230 699 204 722T178 787Q178 827 204 851T271
875Q311 875 337 851T364 787Q364 746 338 723T271 699ZM271 735Q290 735 304 748T318 787Q318 810 304 824T271 838Q251 838 237 824T223 787Q223 762 237 749T271 735Z" />
            <glyph unicode="&#xc6;" glyph-name="AE" horiz-adv-x="822" d="M401 258V590H397Q344 483 290 376L229 258H401ZM773 71V0H401V191H195L96 0H8L352 656H763V586H485V380H717V309H485V71H773Z" />
            <glyph unicode="&#xc7;" glyph-name="Ccedilla" horiz-adv-x="571" d="M52 328Q52 407 74 470T135 577T227 644T344 668Q404 668 449 644T523 587L476 534Q450 562 419 578T345 595Q298 595 260 577T195 524T153 440T138 330Q138 268 152 219T193 134T256 80T341
61Q389 61 424 80T492 134L539 83Q500 38 451 13T339 -12Q277 -12 225 11T134 77T74 184T52 328ZM324 3H377L352 -50Q376 -58 393 -74T411 -121Q411 -143 399 -159T367 -186T321 -203T266 -213L258 -172Q298 -167 322 -156T347 -124Q347 -104 331 -94T284 -75L324
3Z" />
            <glyph unicode="&#xc8;" glyph-name="Egrave" horiz-adv-x="527" d="M90 656H468V586H173V380H422V309H173V71H478V0H90V656ZM153 818H247L335 706H266L153 818Z" />
            <glyph unicode="&#xc9;" glyph-name="Eacute" horiz-adv-x="527" d="M90 656H468V586H173V380H422V309H173V71H478V0H90V656ZM302 706H233L321 818H415L302 706Z" />
            <glyph unicode="&#xca;" glyph-name="Ecircumflex" horiz-adv-x="527" d="M90 656H468V586H173V380H422V309H173V71H478V0H90V656ZM148 706L244 818H324L420 706H353L286 774H282L215 706H148Z" />
            <glyph unicode="&#xcb;" glyph-name="Edieresis" horiz-adv-x="527" d="M90 656H468V586H173V380H422V309H173V71H478V0H90V656ZM198 715Q176 715 163 729T149 764Q149 786 162 799T198 813Q219 813 233 800T247 764Q247 743 233 729T198 715ZM370 715Q349 715
335 729T321 764Q321 786 335 799T370 813Q392 813 405 800T419 764Q419 743 406 729T370 715Z" />
            <glyph unicode="&#xcc;" glyph-name="Igrave" horiz-adv-x="263" d="M90 656H173V0H90V656ZM0 818H94L182 706H113L0 818Z" />
            <glyph unicode="&#xcd;" glyph-name="Iacute" horiz-adv-x="263" d="M90 656H173V0H90V656ZM149 706H80L168 818H262L149 706Z" />
            <glyph unicode="&#xce;" glyph-name="Icircumflex" horiz-adv-x="263" d="M90 656H173V0H90V656ZM-5 706L91 818H171L267 706H200L133 774H129L62 706H-5Z" />
            <glyph unicode="&#xcf;" glyph-name="Idieresis" horiz-adv-x="263" d="M90 656H173V0H90V656ZM45 715Q23 715 10 729T-4 764Q-4 786 9 799T45 813Q66 813 80 800T94 764Q94 743 80 729T45 715ZM217 715Q196 715 182 729T168 764Q168 786 182 799T217 813Q239
813 252 800T266 764Q266 743 253 729T217 715Z" />
            <glyph unicode="&#xd0;" glyph-name="Eth" horiz-adv-x="638" d="M270 68Q385 68 442 137T500 331Q500 456 443 522T270 588H195V368H344V321H195V68H270ZM276 656Q428 656 507 572T586 331Q586 253 566 192T507 88T411 23T280 0H112V321H33V364L112 368V656H276Z" />
            <glyph unicode="&#xd1;" glyph-name="Ntilde" horiz-adv-x="647" d="M90 656H176L413 244L484 108H488Q485 158 482 211T478 317V656H557V0H471L233 413L162 548H158Q162 498 165 447T169 343V0H90V656ZM386 711Q366 711 350 719T321 737T294 755T267 763Q253
763 242 750T227 711H181Q186 758 208 788T266 819Q286 819 302 811T331 793T358 775T385 767Q399 767 410 780T425 819H471Q466 773 444 742T386 711Z" />
            <glyph unicode="&#xd2;" glyph-name="Ograve" horiz-adv-x="664" d="M332 -12Q270 -12 219 12T130 80T73 188T52 331Q52 410 72 472T130 578T218 645T332 668Q394 668 445 645T534 578T592 472T613 331Q613 252 593 189T535 81T446 12T332 -12ZM332 61Q376 61
411 80T472 134T512 219T526 331Q526 392 512 441T473 524T412 576T332 595Q288 595 253 577T192 524T152 441T138 331Q138 269 152 220T191 135T252 80T332 61ZM201 818H295L383 706H314L201 818Z" />
            <glyph unicode="&#xd3;" glyph-name="Oacute" horiz-adv-x="664" d="M332 -12Q270 -12 219 12T130 80T73 188T52 331Q52 410 72 472T130 578T218 645T332 668Q394 668 445 645T534 578T592 472T613 331Q613 252 593 189T535 81T446 12T332 -12ZM332 61Q376 61
411 80T472 134T512 219T526 331Q526 392 512 441T473 524T412 576T332 595Q288 595 253 577T192 524T152 441T138 331Q138 269 152 220T191 135T252 80T332 61ZM350 706H281L369 818H463L350 706Z" />
            <glyph unicode="&#xd4;" glyph-name="Ocircumflex" horiz-adv-x="664" d="M332 -12Q270 -12 219 12T130 80T73 188T52 331Q52 410 72 472T130 578T218 645T332 668Q394 668 445 645T534 578T592 472T613 331Q613 252 593 189T535 81T446 12T332 -12ZM332 61Q376
61 411 80T472 134T512 219T526 331Q526 392 512 441T473 524T412 576T332 595Q288 595 253 577T192 524T152 441T138 331Q138 269 152 220T191 135T252 80T332 61ZM196 706L292 818H372L468 706H401L334 774H330L263 706H196Z" />
            <glyph unicode="&#xd5;" glyph-name="Otilde" horiz-adv-x="664" d="M332 -12Q270 -12 219 12T130 80T73 188T52 331Q52 410 72 472T130 578T218 645T332 668Q394 668 445 645T534 578T592 472T613 331Q613 252 593 189T535 81T446 12T332 -12ZM332 61Q376 61
411 80T472 134T512 219T526 331Q526 392 512 441T473 524T412 576T332 595Q288 595 253 577T192 524T152 441T138 331Q138 269 152 220T191 135T252 80T332 61ZM392 711Q372 711 356 719T327 737T300 755T273 763Q259 763 248 750T233 711H187Q192 758 214 788T272
819Q292 819 308 811T337 793T364 775T391 767Q405 767 416 780T431 819H477Q472 773 450 742T392 711Z" />
            <glyph unicode="&#xd6;" glyph-name="Odieresis" horiz-adv-x="664" d="M332 -12Q270 -12 219 12T130 80T73 188T52 331Q52 410 72 472T130 578T218 645T332 668Q394 668 445 645T534 578T592 472T613 331Q613 252 593 189T535 81T446 12T332 -12ZM332 61Q376
61 411 80T472 134T512 219T526 331Q526 392 512 441T473 524T412 576T332 595Q288 595 253 577T192 524T152 441T138 331Q138 269 152 220T191 135T252 80T332 61ZM246 715Q224 715 211 729T197 764Q197 786 210 799T246 813Q267 813 281 800T295 764Q295 743
281 729T246 715ZM418 715Q397 715 383 729T369 764Q369 786 383 799T418 813Q440 813 453 800T467 764Q467 743 454 729T418 715Z" />
            <glyph unicode="&#xd7;" glyph-name="multiply" horiz-adv-x="497" d="M50 171L205 330L50 488L94 533L249 374L403 533L447 488L292 330L447 171L403 126L249 286L94 126L50 171Z" />
            <glyph unicode="&#xd8;" glyph-name="Oslash" horiz-adv-x="664" d="M208 116Q233 90 265 76T335 61Q379 61 414 80T475 134T515 219T529 331Q529 379 521 419T496 491L208 116ZM462 541Q411 595 335 595Q291 595 255 577T194 524T154 441T140 331Q140 235 174
167L462 541ZM550 561Q581 518 598 461T615 331Q615 252 595 189T537 81T448 12T335 -12Q283 -12 239 4T159 53L96 -30L50 6L120 97Q88 141 71 200T54 331Q54 410 74 472T132 578T221 645T335 668Q439 668 510 605L573 686L619 651L550 561Z" />
            <glyph unicode="&#xd9;" glyph-name="Ugrave" horiz-adv-x="645" d="M87 656H170V269Q170 210 182 170T214 106T263 72T323 61Q356 61 384 71T433 106T466 170T478 269V656H558V271Q558 192 540 138T491 51T416 3T323 -12Q273 -12 230 2T155 50T105 138T87 271V656ZM191
818H285L373 706H304L191 818Z" />
            <glyph unicode="&#xda;" glyph-name="Uacute" horiz-adv-x="645" d="M87 656H170V269Q170 210 182 170T214 106T263 72T323 61Q356 61 384 71T433 106T466 170T478 269V656H558V271Q558 192 540 138T491 51T416 3T323 -12Q273 -12 230 2T155 50T105 138T87 271V656ZM340
706H271L359 818H453L340 706Z" />
            <glyph unicode="&#xdb;" glyph-name="Ucircumflex" horiz-adv-x="645" d="M87 656H170V269Q170 210 182 170T214 106T263 72T323 61Q356 61 384 71T433 106T466 170T478 269V656H558V271Q558 192 540 138T491 51T416 3T323 -12Q273 -12 230 2T155 50T105 138T87
271V656ZM186 706L282 818H362L458 706H391L324 774H320L253 706H186Z" />
            <glyph unicode="&#xdc;" glyph-name="Udieresis" horiz-adv-x="645" d="M87 656H170V269Q170 210 182 170T214 106T263 72T323 61Q356 61 384 71T433 106T466 170T478 269V656H558V271Q558 192 540 138T491 51T416 3T323 -12Q273 -12 230 2T155 50T105 138T87
271V656ZM236 715Q214 715 201 729T187 764Q187 786 200 799T236 813Q257 813 271 800T285 764Q285 743 271 729T236 715ZM408 715Q387 715 373 729T359 764Q359 786 373 799T408 813Q430 813 443 800T457 764Q457 743 444 729T408 715Z" />
            <glyph unicode="&#xdd;" glyph-name="Yacute" horiz-adv-x="476" d="M196 254L-1 656H88L173 471Q189 435 204 400T236 328H240Q257 365 274 400T306 471L390 656H477L280 254V0H196V254ZM256 706H187L275 818H369L256 706Z" />
            <glyph unicode="&#xde;" glyph-name="Thorn" horiz-adv-x="583" d="M90 656H173V546H291Q345 546 390 536T466 503T515 444T533 353Q533 301 516 263T466 199T390 162T291 150H173V0H90V656ZM281 218Q367 218 408 250T450 353Q450 424 408 451T281 478H173V218H281Z" />
            <glyph unicode="&#xdf;" glyph-name="germandbls" horiz-adv-x="576" d="M82 515Q82 609 133 665T278 722Q317 722 347 711T399 679T430 633T441 576Q441 538 427 512T396 463T364 421T350 374Q350 350 364 334T401 306T448 280T496 249T532 204T547 137Q547 105
536 78T504 31T454 0T387 -12Q345 -12 311 1T246 37L279 95Q305 73 330 63T385 52Q427 52 448 76T469 132Q469 161 455 180T418 213T371 239T323 268T287 306T272 364Q272 398 285 422T315 468T346 513T360 568Q360 606 340 630T277 655Q223 655 194 617T164 500V0H82V515Z"
            />
            <glyph unicode="&#xe0;" glyph-name="agrave" horiz-adv-x="512" d="M58 126Q58 206 129 248T357 308Q357 331 353 353T337 392T306 419T257 430Q214 430 178 414T112 378L79 435Q113 457 162 477T270 498Q359 498 399 444T439 298V0H371L364 58H362Q327 29 287
9T201 -12Q139 -12 99 24T58 126ZM139 132Q139 90 163 72T224 54Q259 54 290 70T357 119V254Q296 246 254 235T187 209T150 175T139 132ZM158 714H244L334 573H271L158 714Z" />
            <glyph unicode="&#xe1;" glyph-name="aacute" horiz-adv-x="512" d="M58 126Q58 206 129 248T357 308Q357 331 353 353T337 392T306 419T257 430Q214 430 178 414T112 378L79 435Q113 457 162 477T270 498Q359 498 399 444T439 298V0H371L364 58H362Q327 29 287
9T201 -12Q139 -12 99 24T58 126ZM139 132Q139 90 163 72T224 54Q259 54 290 70T357 119V254Q296 246 254 235T187 209T150 175T139 132ZM267 573H204L294 714H380L267 573Z" />
            <glyph unicode="&#xe2;" glyph-name="acircumflex" horiz-adv-x="512" d="M58 126Q58 206 129 248T357 308Q357 331 353 353T337 392T306 419T257 430Q214 430 178 414T112 378L79 435Q113 457 162 477T270 498Q359 498 399 444T439 298V0H371L364 58H362Q327
29 287 9T201 -12Q139 -12 99 24T58 126ZM139 132Q139 90 163 72T224 54Q259 54 290 70T357 119V254Q296 246 254 235T187 209T150 175T139 132ZM235 714H303L398 573H338L271 664H267L200 573H140L235 714Z" />
            <glyph unicode="&#xe3;" glyph-name="atilde" horiz-adv-x="512" d="M58 126Q58 206 129 248T357 308Q357 331 353 353T337 392T306 419T257 430Q214 430 178 414T112 378L79 435Q113 457 162 477T270 498Q359 498 399 444T439 298V0H371L364 58H362Q327 29 287
9T201 -12Q139 -12 99 24T58 126ZM139 132Q139 90 163 72T224 54Q259 54 290 70T357 119V254Q296 246 254 235T187 209T150 175T139 132ZM130 579Q134 624 154 654T211 685Q230 685 246 677T275 660T301 642T325 634Q353 634 362 685H408Q404 640 384 610T327 579Q308
579 293 587T264 604T238 622T213 630Q185 630 176 579H130V579Z" />
            <glyph unicode="&#xe4;" glyph-name="adieresis" horiz-adv-x="512" d="M58 126Q58 206 129 248T357 308Q357 331 353 353T337 392T306 419T257 430Q214 430 178 414T112 378L79 435Q113 457 162 477T270 498Q359 498 399 444T439 298V0H371L364 58H362Q327 29
287 9T201 -12Q139 -12 99 24T58 126ZM139 132Q139 90 163 72T224 54Q259 54 290 70T357 119V254Q296 246 254 235T187 209T150 175T139 132ZM183 588Q161 588 148 602T134 637Q134 658 147 672T183 686Q204 686 218 672T232 637Q232 616 218 602T183 588ZM355
588Q334 588 320 602T306 637Q306 658 320 672T355 686Q377 686 390 672T404 637Q404 616 391 602T355 588Z" />
            <glyph unicode="&#xe5;" glyph-name="aring" horiz-adv-x="512" d="M58 126Q58 206 129 248T357 308Q357 331 353 353T337 392T306 419T257 430Q214 430 178 414T112 378L79 435Q113 457 162 477T270 498Q359 498 399 444T439 298V0H371L364 58H362Q327 29 287
9T201 -12Q139 -12 99 24T58 126ZM139 132Q139 90 163 72T224 54Q259 54 290 70T357 119V254Q296 246 254 235T187 209T150 175T139 132ZM269 542Q228 542 202 567T176 635Q176 677 202 702T269 727Q310 727 336 702T362 635Q362 593 336 568T269 542ZM269 579Q289
579 303 594T317 635Q317 660 303 675T269 690Q249 690 235 675T221 635Q221 609 235 594T269 579Z" />
            <glyph unicode="&#xe6;" glyph-name="ae" horiz-adv-x="785" d="M139 132Q139 90 163 72T224 54Q258 54 298 73T371 129Q363 148 358 174T352 229V254Q294 246 254 235T188 209T151 175T139 132ZM79 435Q113 457 161 477T263 498Q317 498 352 471T402 395Q431
443 471 470T562 498Q607 498 641 482T699 436T735 364T747 269Q747 241 744 223H429Q430 185 442 154T475 101T522 67T580 55Q615 55 643 66T698 95L728 38Q696 18 658 3T570 -12Q509 -12 468 15T399 79Q349 34 299 11T201 -12Q139 -12 99 24T58 126Q58 206 129
248T352 308Q352 331 348 353T333 392T302 419T253 430Q213 430 177 414T112 378L79 435ZM675 278Q675 353 646 393T560 433Q509 433 473 392T429 278H675Z" />
            <glyph unicode="&#xe7;" glyph-name="ccedilla" horiz-adv-x="456" d="M46 242Q46 303 65 350T116 431T190 481T280 498Q328 498 362 481T422 440L381 387Q359 406 336 418T283 430Q250 430 222 417T174 378T143 319T131 242Q131 200 142 166T172 108T220 70T281
56Q316 56 344 70T395 105L432 51Q399 22 359 5T274 -12Q226 -12 184 5T112 54T64 134T46 242ZM253 3H306L281 -50Q305 -58 322 -74T340 -121Q340 -143 328 -159T296 -186T250 -203T195 -213L187 -172Q227 -167 251 -156T276 -124Q276 -104 260 -94T213 -75L253
3Z" />
            <glyph unicode="&#xe8;" glyph-name="egrave" horiz-adv-x="496" d="M46 242Q46 302 64 349T113 430T183 480T264 498Q310 498 346 482T407 436T445 364T458 270Q458 243 455 225H127Q132 146 175 100T289 54Q324 54 353 64T410 92L439 38Q407 18 368 3T279 -12Q230
-12 188 5T114 55T64 135T46 242ZM386 279Q386 354 355 393T266 433Q240 433 217 423T174 393T143 345T126 279H386ZM154 714H240L330 573H267L154 714Z" />
            <glyph unicode="&#xe9;" glyph-name="eacute" horiz-adv-x="496" d="M46 242Q46 302 64 349T113 430T183 480T264 498Q310 498 346 482T407 436T445 364T458 270Q458 243 455 225H127Q132 146 175 100T289 54Q324 54 353 64T410 92L439 38Q407 18 368 3T279 -12Q230
-12 188 5T114 55T64 135T46 242ZM386 279Q386 354 355 393T266 433Q240 433 217 423T174 393T143 345T126 279H386ZM263 573H200L290 714H376L263 573Z" />
            <glyph unicode="&#xea;" glyph-name="ecircumflex" horiz-adv-x="496" d="M46 242Q46 302 64 349T113 430T183 480T264 498Q310 498 346 482T407 436T445 364T458 270Q458 243 455 225H127Q132 146 175 100T289 54Q324 54 353 64T410 92L439 38Q407 18 368 3T279
-12Q230 -12 188 5T114 55T64 135T46 242ZM386 279Q386 354 355 393T266 433Q240 433 217 423T174 393T143 345T126 279H386ZM231 714H299L394 573H334L267 664H263L196 573H136L231 714Z" />
            <glyph unicode="&#xeb;" glyph-name="edieresis" horiz-adv-x="496" d="M46 242Q46 302 64 349T113 430T183 480T264 498Q310 498 346 482T407 436T445 364T458 270Q458 243 455 225H127Q132 146 175 100T289 54Q324 54 353 64T410 92L439 38Q407 18 368 3T279
-12Q230 -12 188 5T114 55T64 135T46 242ZM386 279Q386 354 355 393T266 433Q240 433 217 423T174 393T143 345T126 279H386ZM179 588Q157 588 144 602T130 637Q130 658 143 672T179 686Q200 686 214 672T228 637Q228 616 214 602T179 588ZM351 588Q330 588 316
602T302 637Q302 658 316 672T351 686Q373 686 386 672T400 637Q400 616 387 602T351 588Z" />
            <glyph unicode="&#xec;" glyph-name="igrave" horiz-adv-x="246" d="M82 486H164V0H82V486ZM12 714H98L188 573H125L12 714Z" />
            <glyph unicode="&#xed;" glyph-name="iacute" horiz-adv-x="246" d="M82 486H164V0H82V486ZM121 573H58L148 714H234L121 573Z" />
            <glyph unicode="&#xee;" glyph-name="icircumflex" horiz-adv-x="246" d="M82 486H164V0H82V486ZM89 714H157L252 573H192L125 664H121L54 573H-6L89 714Z" />
            <glyph unicode="&#xef;" glyph-name="idieresis" horiz-adv-x="246" d="M82 486H164V0H82V486ZM37 588Q15 588 2 602T-12 637Q-12 658 1 672T37 686Q58 686 72 672T86 637Q86 616 72 602T37 588ZM209 588Q188 588 174 602T160 637Q160 658 174 672T209 686Q231
686 244 672T258 637Q258 616 245 602T209 588Z" />
            <glyph unicode="&#xf0;" glyph-name="eth" horiz-adv-x="545" d="M271 56Q305 56 330 70T372 111T397 173T406 254Q406 268 406 282T404 309Q371 353 338 368T271 383Q238 383 212 371T168 337T141 286T131 222Q131 184 142 154T172 102T217 68T271 56ZM349 605Q409
544 447 460T485 257Q485 197 470 148T426 63T358 8T269 -12Q227 -12 188 4T119 50T71 124T53 222Q53 273 69 314T112 385T177 431T259 447Q297 447 332 431T393 381Q379 443 352 489T286 573L145 500L121 541L248 606Q196 646 136 678L174 730Q210 710 245 688T312
639L454 712L478 671L349 605Z" />
            <glyph unicode="&#xf1;" glyph-name="ntilde" horiz-adv-x="547" d="M82 486H150L157 416H160Q195 451 233 474T323 498Q400 498 435 450T471 308V0H389V297Q389 366 367 396T297 427Q259 427 230 408T164 352V0H82V486ZM153 579Q157 624 177 654T234 685Q253
685 269 677T298 660T324 642T348 634Q376 634 385 685H431Q427 640 407 610T350 579Q331 579 316 587T287 604T261 622T236 630Q208 630 199 579H153V579Z" />
            <glyph unicode="&#xf2;" glyph-name="ograve" horiz-adv-x="542" d="M46 242Q46 303 64 350T114 431T185 481T271 498Q316 498 356 481T428 431T477 351T496 242Q496 182 478 135T428 55T357 5T271 -12Q226 -12 186 5T114 54T65 134T46 242ZM131 242Q131 200 141
166T169 108T214 70T271 56Q302 56 328 69T372 107T401 166T411 242Q411 284 401 318T373 378T328 416T271 430Q240 430 214 417T170 378T141 319T131 242ZM160 714H246L336 573H273L160 714Z" />
            <glyph unicode="&#xf3;" glyph-name="oacute" horiz-adv-x="542" d="M46 242Q46 303 64 350T114 431T185 481T271 498Q316 498 356 481T428 431T477 351T496 242Q496 182 478 135T428 55T357 5T271 -12Q226 -12 186 5T114 54T65 134T46 242ZM131 242Q131 200 141
166T169 108T214 70T271 56Q302 56 328 69T372 107T401 166T411 242Q411 284 401 318T373 378T328 416T271 430Q240 430 214 417T170 378T141 319T131 242ZM269 573H206L296 714H382L269 573Z" />
            <glyph unicode="&#xf4;" glyph-name="ocircumflex" horiz-adv-x="542" d="M46 242Q46 303 64 350T114 431T185 481T271 498Q316 498 356 481T428 431T477 351T496 242Q496 182 478 135T428 55T357 5T271 -12Q226 -12 186 5T114 54T65 134T46 242ZM131 242Q131
200 141 166T169 108T214 70T271 56Q302 56 328 69T372 107T401 166T411 242Q411 284 401 318T373 378T328 416T271 430Q240 430 214 417T170 378T141 319T131 242ZM237 714H305L400 573H340L273 664H269L202 573H142L237 714Z" />
            <glyph unicode="&#xf5;" glyph-name="otilde" horiz-adv-x="542" d="M46 242Q46 303 64 350T114 431T185 481T271 498Q316 498 356 481T428 431T477 351T496 242Q496 182 478 135T428 55T357 5T271 -12Q226 -12 186 5T114 54T65 134T46 242ZM131 242Q131 200 141
166T169 108T214 70T271 56Q302 56 328 69T372 107T401 166T411 242Q411 284 401 318T373 378T328 416T271 430Q240 430 214 417T170 378T141 319T131 242ZM132 579Q136 624 156 654T213 685Q232 685 248 677T277 660T303 642T327 634Q355 634 364 685H410Q406
640 386 610T329 579Q310 579 295 587T266 604T240 622T215 630Q187 630 178 579H132V579Z" />
            <glyph unicode="&#xf6;" glyph-name="odieresis" horiz-adv-x="542" d="M46 242Q46 303 64 350T114 431T185 481T271 498Q316 498 356 481T428 431T477 351T496 242Q496 182 478 135T428 55T357 5T271 -12Q226 -12 186 5T114 54T65 134T46 242ZM131 242Q131 200
141 166T169 108T214 70T271 56Q302 56 328 69T372 107T401 166T411 242Q411 284 401 318T373 378T328 416T271 430Q240 430 214 417T170 378T141 319T131 242ZM185 588Q163 588 150 602T136 637Q136 658 149 672T185 686Q206 686 220 672T234 637Q234 616 220
602T185 588ZM357 588Q336 588 322 602T308 637Q308 658 322 672T357 686Q379 686 392 672T406 637Q406 616 393 602T357 588Z" />
            <glyph unicode="&#xf7;" glyph-name="divide" horiz-adv-x="497" d="M249 456Q226 456 210 471T194 510Q194 533 210 548T249 563Q272 563 287 548T303 510Q303 486 288 471T249 456ZM194 150Q194 173 210 188T249 203Q272 203 287 188T303 150Q303 126 288 111T249
96Q226 96 210 111T194 150ZM34 361H463V299H34V361Z" />
            <glyph unicode="&#xf8;" glyph-name="oslash" horiz-adv-x="542" d="M178 93Q217 54 271 54Q302 54 328 67T374 105T404 164T415 239Q415 306 391 353L178 93ZM364 392Q327 432 271 432Q240 432 214 419T168 381T138 322T127 246Q127 179 150 133L364 392ZM442
415Q467 383 481 340T496 242Q496 182 478 135T428 55T357 5T271 -12Q192 -12 132 37L83 -23L46 6L100 71Q75 103 61 145T46 242Q46 303 64 350T114 431T185 481T271 498Q309 498 345 486T410 448L460 509L496 480L442 415Z" />
            <glyph unicode="&#xf9;" glyph-name="ugrave" horiz-adv-x="544" d="M75 486H158V189Q158 120 179 90T249 59Q287 59 316 78T380 141V486H462V0H394L387 76H384Q350 36 313 12T224 -12Q146 -12 111 36T75 178V486ZM161 714H247L337 573H274L161 714Z" />
            <glyph unicode="&#xfa;" glyph-name="uacute" horiz-adv-x="544" d="M75 486H158V189Q158 120 179 90T249 59Q287 59 316 78T380 141V486H462V0H394L387 76H384Q350 36 313 12T224 -12Q146 -12 111 36T75 178V486ZM270 573H207L297 714H383L270 573Z" />
            <glyph unicode="&#xfb;" glyph-name="ucircumflex" horiz-adv-x="544" d="M75 486H158V189Q158 120 179 90T249 59Q287 59 316 78T380 141V486H462V0H394L387 76H384Q350 36 313 12T224 -12Q146 -12 111 36T75 178V486ZM238 714H306L401 573H341L274 664H270L203
573H143L238 714Z" />
            <glyph unicode="&#xfc;" glyph-name="udieresis" horiz-adv-x="544" d="M75 486H158V189Q158 120 179 90T249 59Q287 59 316 78T380 141V486H462V0H394L387 76H384Q350 36 313 12T224 -12Q146 -12 111 36T75 178V486ZM186 588Q164 588 151 602T137 637Q137 658
150 672T186 686Q207 686 221 672T235 637Q235 616 221 602T186 588ZM358 588Q337 588 323 602T309 637Q309 658 323 672T358 686Q380 686 393 672T407 637Q407 616 394 602T358 588Z" />
            <glyph unicode="&#xfd;" glyph-name="yacute" horiz-adv-x="467" d="M49 -134Q57 -136 67 -138T86 -141Q128 -141 154 -112T196 -37L207 -1L12 486H97L196 217Q207 185 219 150T243 80H247Q258 113 268 149T288 217L375 486H455L272 -40Q259 -76 243 -107T205
-160T155 -196T90 -209Q73 -209 59 -207T33 -199L49 -134V-134ZM240 573H177L267 714H353L240 573Z" />
            <glyph unicode="&#xfe;" glyph-name="thorn" horiz-adv-x="555" d="M164 -205H82V712H164V518L163 435Q195 461 233 479T311 498Q359 498 395 481T457 431T494 353T507 250Q507 188 490 140T444 57T377 6T297 -12Q262 -12 229 2T163 42L164 -41V-205ZM164 108Q197
80 228 69T283 57Q313 57 338 70T382 108T411 169T422 250Q422 290 415 323T393 379T353 416T294 429Q263 429 232 412T164 363V108Z" />
            <glyph unicode="&#xff;" glyph-name="ydieresis" horiz-adv-x="467" d="M49 -134Q57 -136 67 -138T86 -141Q128 -141 154 -112T196 -37L207 -1L12 486H97L196 217Q207 185 219 150T243 80H247Q258 113 268 149T288 217L375 486H455L272 -40Q259 -76 243 -107T205
-160T155 -196T90 -209Q73 -209 59 -207T33 -199L49 -134V-134ZM156 588Q134 588 121 602T107 637Q107 658 120 672T156 686Q177 686 191 672T205 637Q205 616 191 602T156 588ZM328 588Q307 588 293 602T279 637Q279 658 293 672T328 686Q350 686 363 672T377
637Q377 616 364 602T328 588Z" />
            <glyph unicode="&#x2013;" glyph-name="endash" horiz-adv-x="480" d="M41 280H439V223H41V280Z" />
            <glyph unicode="&#x2014;" glyph-name="emdash" horiz-adv-x="800" d="M41 280H759V223H41V280Z" />
            <glyph unicode="&#x2018;" glyph-name="quoteleft" horiz-adv-x="249" d="M187 657Q149 632 130 604T111 533Q114 534 120 534Q140 534 156 521T173 483Q173 457 158 443T120 428Q90 428 74 451T57 518Q57 578 84 622T163 696L187 657Z" />
            <glyph unicode="&#x2019;" glyph-name="quoteright" horiz-adv-x="249" d="M63 469Q101 494 119 522T138 594Q135 593 130 593Q109 593 93 606T77 643Q77 669 92 684T130 699Q159 699 176 676T193 608Q193 548 166 505T86 431L63 469Z" />
            <glyph unicode="&#x201a;" glyph-name="quotesinglbase" horiz-adv-x="249" d="M63 -106Q101 -81 119 -53T138 19Q135 18 130 18Q109 18 93 31T77 68Q77 94 92 109T130 124Q159 124 176 101T193 33Q193 -27 166 -70T86 -144L63 -106Z" />
            <glyph unicode="&#x201c;" glyph-name="quotedblleft" horiz-adv-x="425" d="M187 657Q149 632 130 604T111 533Q114 534 120 534Q140 534 156 521T173 483Q173 457 158 443T120 428Q90 428 74 451T57 518Q57 578 84 622T163 696L187 657ZM363 657Q325 632 306
604T287 533Q290 534 296 534Q316 534 332 521T349 483Q349 457 334 443T296 428Q266 428 250 451T233 518Q233 578 260 622T339 696L363 657Z" />
            <glyph unicode="&#x201d;" glyph-name="quotedblright" horiz-adv-x="425" d="M63 469Q101 494 119 522T138 594Q135 593 130 593Q109 593 93 606T77 643Q77 669 92 684T130 699Q159 699 176 676T193 608Q193 548 166 505T86 431L63 469ZM239 469Q277 494 295
522T314 594Q311 593 306 593Q285 593 269 606T253 643Q253 669 268 684T306 699Q335 699 352 676T369 608Q369 548 342 505T262 431L239 469Z" />
            <glyph unicode="&#x201e;" glyph-name="quotedblbase" horiz-adv-x="425" d="M63 -106Q101 -81 119 -53T138 19Q135 18 130 18Q109 18 93 31T77 68Q77 94 92 109T130 124Q159 124 176 101T193 33Q193 -27 166 -70T86 -144L63 -106ZM239 -106Q277 -81 295 -53T314
19Q311 18 306 18Q285 18 269 31T253 68Q253 94 268 109T306 124Q335 124 352 101T369 33Q369 -27 342 -70T262 -144L239 -106Z" />
            <glyph unicode="&#x2022;" glyph-name="bullet" horiz-adv-x="304" d="M152 143Q129 143 109 151T74 176T49 214T40 263Q40 290 49 312T73 350T109 375T152 384Q174 384 194 375T230 351T255 313T264 263Q264 236 255 214T231 176T195 152T152 143Z" />
            <glyph unicode="&#x2039;" glyph-name="guilsinglleft" horiz-adv-x="271" d="M45 221V283L181 438L217 408L99 252L217 94L181 66L45 221Z" />
            <glyph unicode="&#x203a;" glyph-name="guilsinglright" horiz-adv-x="271" d="M172 252L54 408L89 438L226 283V221L89 66L54 94L172 252Z" />
        </font>
</defs>
</svg>
